<svg xmlns="http://www.w3.org/2000/svg" x="0px" y="0px"
width="100" height="100"
viewBox="0 0 226 226"
style=" fill:#000000;"><g fill="none" fill-rule="nonzero" stroke="none" stroke-width="1" stroke-linecap="butt" stroke-linejoin="miter" stroke-miterlimit="10" stroke-dasharray="" stroke-dashoffset="0" font-family="none" font-weight="none" font-size="none" text-anchor="none" style="mix-blend-mode: normal"><path d="M0,226v-226h226v226z" fill="none"></path><g fill="#e74c3c"><path d="M113,21.1875c-50.62378,0 -91.8125,41.18872 -91.8125,91.8125c0,50.62378 41.18872,91.8125 91.8125,91.8125c50.62378,0 91.8125,-41.18872 91.8125,-91.8125c0,-50.62378 -41.18872,-91.8125 -91.8125,-91.8125zM113,35.3125c42.98194,0 77.6875,34.70557 77.6875,77.6875c0,42.98194 -34.70556,77.6875 -77.6875,77.6875c-42.98193,0 -77.6875,-34.70556 -77.6875,-77.6875c0,-42.98193 34.70557,-77.6875 77.6875,-77.6875zM86.29492,76.14258l-10.15234,10.15234l26.70508,26.70508l-26.70508,26.70508l10.15234,10.15234l26.70508,-26.70508l26.70508,26.70508l10.15234,-10.15234l-26.70508,-26.70508l26.70508,-26.70508l-10.15234,-10.15234l-26.70508,26.70508z"></path></g></g></svg>