<svg xmlns="http://www.w3.org/2000/svg" version="1.1" xlink="http://www.w3.org/1999/xlink" xmlns:svgjs="http://svgjs.com/svgjs" width="100%" height="100%" preserveAspectRatio="xMidYMid meet" viewBox="2.0605325801170693e-7 -0.0000037135580441827187 300.0040588378906 86.3422622680664" overflow="visible"><defs id="SvgjsDefs111766"></defs><g id="SvgjsG111767" transform="scale(0.634502469509339)" opacity="1"><g id="SvgjsG111768" class="text" transform="translate(278.9377617551123, 126.4103127367229) scale(1)" light-content="false" fill="#0fa413"><path d="M-135.96 -23.13L-133.27 -37.98L-149.42 -37.98L-148.02 -46.35L-130.48 -46.35L-125.2 -62.3L-164.07 -62.3L-175.04 0L-156.1 0L-152.11 -23.13ZM-178.03 -0.3L-177.23 -4.78L-220.29 -4.78ZM-174.64 -19.54L-173.84 -24.02L-216.9 -24.02ZM-172.94 -29.11L-172.15 -33.59L-215.21 -33.59ZM-171.25 -38.68L-170.45 -43.16L-213.51 -43.16ZM-169.55 -48.24L-168.86 -52.73L-211.82 -52.73ZM-176.33 -9.97L-175.53 -14.45L-218.6 -14.45ZM-167.96 -57.81L-167.16 -62.3L-210.12 -62.3Z M-92.5 0L-75.06 0L-78.95 -52.73L-103.67 -52.73L-125.79 0L-108.55 0L-105.46 -8.07L-92.9 -8.07ZM-92.9 -22.33L-100.18 -22.33L-94.3 -37.48L-92.9 -37.48ZM-128.98 -0.4L-127.09 -4.78L-169.85 -4.78ZM-124.9 -10.07L-123 -14.45L-165.77 -14.45ZM-120.81 -19.64L-119.02 -24.02L-161.68 -24.02ZM-116.82 -29.21L-114.93 -33.59L-157.59 -33.59ZM-112.74 -38.78L-110.94 -43.16L-153.51 -43.16ZM-108.75 -48.44L-106.96 -52.73L-149.42 -52.73Z M-103.07 -4.78L-61.4 -0.3L-60.01 -4.78ZM-52.43 -43.16L-95.39 -43.16L-53.73 -38.68C-53.26 -40.6 -52.83 -42.1 -52.43 -43.16ZM-54.92 -29.9C-54.92 -30.77 -54.86 -32 -54.72 -33.59L-97.19 -33.59L-54.92 -29.11ZM-58.21 -10.07L-56.82 -14.45L-99.78 -14.45ZM-45.55 -52.73L-88.51 -52.73L-49.64 -48.54C-48.71 -50.01 -47.35 -51.4 -45.55 -52.73ZM-54.03 -24.02L-93.3 -24.02L-51.14 -19.54C-52.46 -20.8 -53.43 -22.29 -54.03 -24.02ZM-14.25 -37.08L-9.47 -51.63C-15.05 -53.03 -21.38 -53.73 -28.46 -53.73C-35.54 -53.73 -40.8 -52.36 -44.26 -49.64C-47.71 -46.92 -50.11 -42 -51.43 -34.89C-51.77 -32.89 -51.93 -31.23 -51.93 -29.9C-51.93 -26.32 -50.8 -23.56 -48.54 -21.63C-46.28 -19.7 -42.46 -18.44 -37.08 -17.84L-30.8 -17.14L-31.3 -13.96C-32.89 -13.76 -35.64 -13.66 -39.52 -13.66C-43.41 -13.66 -47.95 -14.39 -53.13 -15.85L-58.01 -1.1C-52.36 0.43 -46.77 1.2 -41.22 1.2C-35.67 1.2 -31.23 0.93 -27.91 0.4C-25.78 0.07 -24.04 -0.52 -22.68 -1.35C-21.31 -2.18 -19.92 -3.27 -18.49 -4.64C-17.06 -6 -15.88 -7.77 -14.95 -9.97C-14.02 -12.16 -13.36 -14.44 -12.96 -16.8C-12.56 -19.15 -12.36 -20.77 -12.36 -21.63C-12.36 -29.07 -17.71 -33.49 -28.41 -34.89L-33.39 -35.49L-32.89 -38.38C-31.37 -38.58 -29.01 -38.68 -25.82 -38.68C-22.63 -38.68 -18.77 -38.14 -14.25 -37.08Z M44.76 -37.78L47.45 -52.73L8.07 -52.73L5.38 -37.78L16.45 -37.78L9.87 0L27.41 0L33.99 -37.78ZM6.88 -0.3L7.68 -4.78L-35.39 -4.78ZM10.27 -19.54L11.06 -24.02L-32 -24.02ZM11.96 -29.11L12.76 -33.59L-30.3 -33.59ZM2.39 -38.68L3.19 -43.16L-39.87 -43.16ZM4.09 -48.24L4.78 -52.73L-38.18 -52.73ZM8.57 -9.97L9.37 -14.45L-33.69 -14.45Z M102.17 -62.3L75.66 -62.3L64.69 0L91.21 0C101.91 0 109.66 -2.39 114.48 -7.18C119.3 -11.96 122.7 -19.94 124.7 -31.1C125.5 -35.62 125.89 -39.61 125.89 -43.06C125.89 -49.84 124.08 -54.74 120.46 -57.76C116.84 -60.79 110.74 -62.3 102.17 -62.3ZM99.58 -46.35C101.84 -46.35 103.5 -46.12 104.56 -45.65C105.63 -45.19 106.16 -44.19 106.16 -42.66C106.16 -42 106.12 -41.47 106.06 -41.07L102.57 -21.23C102.17 -18.97 101.34 -17.53 100.08 -16.9C98.82 -16.26 96.89 -15.95 94.3 -15.95L86.42 -15.95L91.7 -46.35ZM61.7 -0.3L62.5 -4.78L19.44 -4.78ZM65.09 -19.54L65.89 -24.02L22.83 -24.02ZM66.78 -29.11L67.58 -33.59L24.52 -33.59ZM68.48 -38.68L69.28 -43.16L26.22 -43.16ZM70.17 -48.24L70.87 -52.73L27.91 -52.73ZM63.4 -9.97L64.19 -14.45L21.13 -14.45ZM71.77 -57.81L72.57 -62.3L29.6 -62.3Z M180.22 -62.3L149.52 -62.3L138.55 0L172.64 0C178.56 0 183.14 -2.03 186.4 -6.08C189.66 -10.13 191.28 -15.15 191.28 -21.13C191.28 -27.91 188.29 -31.86 182.31 -32.99L182.41 -33.59C185.6 -34.39 188.31 -36.42 190.54 -39.67C192.76 -42.93 193.88 -47.08 193.88 -52.13C193.88 -55.59 192.8 -58.15 190.64 -59.81C188.48 -61.47 185 -62.3 180.22 -62.3ZM169.25 -24.82C171.38 -24.82 172.44 -23.79 172.44 -21.73C172.44 -19.67 172.01 -17.98 171.15 -16.65C170.28 -15.32 169.02 -14.65 167.36 -14.65L159.98 -14.65L161.78 -24.82ZM172.05 -48.64C173.91 -48.64 174.84 -47.71 174.84 -45.85C174.84 -41.53 173.31 -39.37 170.25 -39.37L164.37 -39.37L166.07 -48.64ZM135.56 -0.3L136.36 -4.78L93.3 -4.78ZM138.95 -19.54L139.75 -24.02L96.69 -24.02ZM140.65 -29.11L141.44 -33.59L98.38 -33.59ZM142.34 -38.68L143.14 -43.16L100.08 -43.16ZM144.04 -48.24L144.73 -52.73L101.77 -52.73ZM137.26 -9.97L138.06 -14.45L94.99 -14.45ZM145.63 -57.81L146.43 -62.3L103.47 -62.3Z"></path></g><g id="SvgjsG111769" class="Bc7L3qJQkh" transform="translate(210.54978252401727, -37.7603564060308) scale(-2.3589678238655516 2.3589678238655516) rotate(-5, 44.88967907121307, 44.849999999999994)" light-content="false" non-strokable="false" fill="#0f6610"><path d="M86.4 34.5c-.4.1-.9.3-1.3.5-.6.4-1.1 1-1.7 1.5-.7.7-1.6 1.4-2.5 1.8-1.6.7-3.4.8-5.1.7-2.9-.2-5.6-1-8.3-1.9-1.7-.6-3.3-1.2-5-1.8-2.4-.8-5-1.2-7.5-1.7-1.6-.3-3.2-.7-4.7-1.5l-5.1-3c-2.7-1.5-5.4-3-8.1-4.6-1.1-.6-2.3-1.3-3.4-2-.7-.4-1.4-1-2.2-1.4-1.4-.7-2.9-1.1-4.5-1.3-.6-.1-1.2-.1-1.8-.2H23c-2.4.1-4.6.6-6.8 1.4-1.6.6-3.3 1.2-4.9 1.8-.2.1-.4 0-.5-.1-.3-.2-.6-.5-.9-.6-.8-.5-1.5-.3-2 .4h-.2c-.6-.2-1.1 0-1.4.5-.2.4-.3.8-.3 1.2.1.7-.2 1.2-.9 1.5-.1 0-.2.1-.2.1-.5.3-.9.7-1.2 1.3-.2.4-.3.9-.4 1.3-.2 1-.5 2.1-.7 3.1-.1.4 0 .8.4 1 .6.5 1 .9 1.3 1.3.1.2.3.3.4.5.5.4.9.6 1.6.3.9-.4 1.7-.9 2.4-1.5.3-.3.7-.4 1.1-.4h1.8l.1.1c-.3.1-.7.3-1 .4-1 .4-2 .9-2.7 1.8-.6.7-1 1.6-1.1 2.5-.1.7.3 1 .9 1.1.3 0 .5.1.7.3.3.3.6.4 1 .5.1 0 .3.1.4.2.4.2.7.2 1.1-.1.3-.3.5-.6.8-.9.2-.2.3-.4.5-.7.2.4.4.7.7 1.1.2.3.5.5.9.5.7 0 1.3.1 2 .1.4 0 .6-.1.7-.5.1-.3.3-.6.6-.7.3-.2.4-.3.2-.6-.1-.1-.1-.2-.2-.4.1 0 .1-.1.2-.1 1.4-.4 2.8-.4 4.2-.2 1.6.2 3.1.2 4.7.1.9-.1 1.9-.1 2.8.1 2.9.6 5.9 1.2 8.8 1.7 1 .2 2 .4 3 .7 1.9.6 3.5 1.9 4.8 3.4 1.4 1.6 2.6 3.3 3.9 4.9.9 1.1 1.7 2.2 2.9 3.1 1.8 1.4 3.9 2.4 6 3.3 1.6.7 3 1.6 4.2 2.9.8 1 1.7 2 2.6 2.9 2.2 2.5 4.4 5 5.9 8.1.4.8 1 1.5 2 1.8h.4c.2-.1.4-.1.5-.3.2-.3.4-.3.7-.3h.2c.7-.1 1.4-.7 1.5-1.3.1-.6.1-1.2-.2-1.8-.2-.4-.3-.8-.5-1.3-.2-.6-.5-1-1-1.3-.3-.2-.7-.3-1-.5-.4-.3-.9-.5-1.2-.9-.5-.6-.9-1.2-1.2-1.8-.8-1.6-1.6-3.3-2.3-5-.5-1.1-1.1-2.1-2-2.8-.4-.3-.8-.6-1.1-1-1.8-1.9-3-4.1-3.7-6.6-.4-1.5-.8-3-1.3-4.5-.2-.7-.6-1.4-1.2-1.9-.2-.2-.4-.3-.6-.5h.5c2.9-.1 5.6.6 8.3 1.3 2 .5 4 1.1 6 1.6 1.9.4 3.7.6 5.6.3 2.5-.4 4.7-1.5 6.4-3.5.7-.8 1.2-1.8 1.2-2.9.1-.5-.3-.8-.8-.6zM6.2 29.1c-.2.3-.5.2-.7.1-.3-.2-.3-.3-.1-.5.1-.1.3-.2.4-.3.1-.1.2-.1.3-.2.3.3.3.6.1.9z"></path></g></g></svg>